<?xml version="1.0" encoding="UTF-8"?><svg id="Layer_1" xmlns="http://www.w3.org/2000/svg" viewBox="0 0 713.42 288.17"><defs><style>.cls-1{stroke-width:0px;}</style></defs><path class="cls-1" d="M198.57,69.11c3.79,27.23,4.93,49.22,8.01,70.2,1.13,7.71.52,2.24,4.51-9.95,6.94-21.24,29.92-34.64,50.19-31.27,17.36,2.89,26.63,17.79,26.02,22.76-.17-3.32,2.29-12.45,6.06-15.63,12.15-10.27,23.02-.7,25.19-.54,2.3.18,3.61-2.39,5.46-3.54,8.63-5.39,17.68-11.81,28.02-6.55,1.79.91,3.01,2.1,4.18,3.72.8,1.12,2.69,5.05,4.32,4.99,1.19-.05,3.14-3.08,4.02-3.88,1.71-1.56,3.59-2.93,5.61-4.07,7.91-4.45,17.44-5.17,26.19-3.22,2.51.56,4.97,1.32,7.39,2.18,1.79.64,4.78,2.41,6.72,2,1.83-.38,2.38-2.49,3.06-4,.96-2.13,1.92-4.22,3.41-6.04,5.81-7.09,16.01-5.24,22.52-.04,3.49,2.79,4.86,7.59,6.9,11.41.83,1.56,1.21,3.67,3.05,3.46,2.14-.24,9.48-12.55,30.42-15.26,7.67-.99,15.44.88,21.89,5.15,4.16,2.76,6.86,4.63,9.83,6.81.94.69,2.24.62,3.08-.18,2.52-2.42,7.12-5.56,12.75-8.3,4.86-2.37,10.07-4.01,15.43-4.77,6.5-.92,13.25-.74,19.41,1.23,14.9,4.77,26.25,21.35,29.26,36.32.18.91.74,1.04,1.29.3,8.1-10.7,20.38-18.66,32.06-20.2,15.41-2.04,47.46,6.84,44.96,29.97-3.41-31.85,17.23-29.6,20.48-29.32,16.68,1.46,19.52,25.62,20.13,35.17,3.15,49.18,7.78,127.89-9.05,144.46-6.9,6.79-20.82,4.93-25.73-.03s-7.44-16.81-6.58-37.2c7.21,17.68-11.92,60.22-60.25,31.77-1.17-.69-1.51-2.19-.79-3.34,1.94-3.11,3.39-6.98,7.2-6.93,4.96.07,18.07,10.16,31.95,5.08,14.18-5.19,14.19-34.53,17.58-42.95,2.46-6.1,11.39-4.98,11.63-.14,1.52,30.95,1.69,46.21,12.33,46.34,19.61.24,14.74-68.32,14.01-106.21-.7-36.25-3.99-56.61-16.31-56.23-10.43.32-10.17,20.78-10.94,27.77-.04.36-.12.72-.26,1.06-1.97,4.59-8.41,4.07-9.72-1.3-5.92-24.29-40.82-38.34-57.52-16.35-12.06,15.87-15.4,34.38-13.98,41.86.18.95,9,8.15,19.61,18.83,5.52,5.55,7.42,10.47,9.53,14.53.76,1.46,1.9,3.64,3.14,6.31,8.24,17.78,7.88,38.55-1.73,55.63-9.39,16.67-23.9,24.25-33.81,26.38-5.02,1.02-15.48,1.2-30.65-5.64-.08-.03-.15-.07-.23-.12-4.74-2.73-9.4-5.47-13.42-9.22-5.19-4.84,2.87-7.38,7.17-7.6,2.72-.14,7.1,1.93,12.28,4.29,22.61,10.32,51.85-3,51.68-43.8-.09-21.84-17.38-43.51-30.05-51.29-15.35-9.43-48.13-13.97-45.13-30.09,1.33-7.13,7.37-10.81,14.46-11.67,7.92-.96,23.94,3.27,24.41-9.82.34-9.37-6.04-18.13-12.84-23.72-8.71-7.15-25.11-8.56-35.56-4.44-4.82,1.91-9.64,4.72-13.63,8.04-3.1,2.58-2.98,3.44-.74,6.94,1.2,1.87,2.29,3.81,3.26,5.81,3.02,6.22,14.88,34.47-36.29,25.01-4-.46-7.84,1.76-8.57,5.92-.8,4.56,2.43,8.76,6.12,11,4.81,2.93,10.18,4,16.78,5.18,5.66,1.06,14.3,2.88,20.62,4.92,21.39,6.9,28.92,20.92,31.96,27.74.19.42,8.79.92,16.86,4.56,12.46,5.62,20.73,18.29,17.63,31.6-3.25,13.95-26.18,13.75-24.93,7.46.23-1.19,1.34-2.01,2.55-2.09,9.89-.62,13.39-4.06,13.33-10.78.6-13.09-12.77-19.79-19.84-19.61-.75.02-1.3.71-1.2,1.45.55,4.25,2.67,14.04,2.11,25.96-.67,14.22-5.28,29.98-22.93,40.5-15.35,9.14-35.41,12.8-49.82,11.03-8.06-.99-17.98-4.04-24.61-8.72-3.43-2.43-6.37-5.1-7.13-7.79-.25-.89.08-1.85.78-2.47,3.22-2.88,7.27-5.58,11-2.47.36.3.75.61,1.17.93,11.65,8.85,26.59,10.14,40.91,7.15,38.29-7.99,37.87-34.64,38.42-44.91,2.66-49.67-49.81-50.3-66.84-57.07-7.14-2.84-16.77-8.97-17.22-17.52-.33-6.27,2.55-11.61,6.7-15.5s9.36-5.62,14.81-5.39c6.41.28,30.93,5.89,31.58-3.11.59-22.08-25.45-37.08-42.48-32.51-7.27,1.95-15.83,7.76-17.66,15.48-1.14,4.78-.27,10.39.06,15.24.32,4.75.8,9.5,1.08,14.25,1.27,21.58,1.62,43.24,1.94,64.85-.06,30.79,6.91,77.1-26.38,81.52-.09.01-.19.02-.28.02-10.37.42-18.84.32-24.92-10.01-.07-.11-.13-.23-.18-.35-4.83-10.81-5.77-22.71-7.06-34.36-1.21-10.9-.6-48.39-.72-60.71-.02-2.06-.8-4.03-2.21-5.54-3.34-3.57-8.88-9.18-13.13-8.92-8.51.44,3.24,78.67-3.28,102.79-1.52,5.62-4.46,10.82-9.01,14.58s-11.18,4.85-16.91,2.78c-8.18-2.96-13.28-9.29-17.28-17.08-.94-1.83-3.58-1.7-4.31.22-3.21,8.48-8.36,18.4-20.01,17.05-12.6-1.46-20.62-17.25-19.33-27.98-1.47,11.37-13.01,27.13-35.86,28.35-28.12,1.3-36.83-8.62-47.41-28.98-16.11,41.53-63.89,43.5-68.96-27.23-.24-3.35-1.61-3.8-2.25.1-1.67,10.24-8.36,26.3-32.34,26.67-23.16.37-28.05-23.32-28.7-26.92-.43-2.41-1.44-2.45-1.96-.06-1.17,5.35-2.88,25.95-13.95,40.97-4.48,6.09-10.74,11.32-18.18,12.62-19.1,3.32-46.2.52-43.74-100.16,1.21-49.27,1.48-77.75,5.98-108.07C17.76-1.54,55.97-7.55,77.69,20.04c12.61,16.02,22.67,52.33,25.24,71.72,1.44,10.88.95,6.48,1.45-.07,1.1-14.24,7.31-49.71,20.87-71.48s58.92-26.57,73.32,48.91ZM23.97,263.88c5.72,7.43,15.84,11.01,23.12,5.09,5.56-4.53,8.5-11.59,10.73-17.2,7.67-20.01,9.61-51.63,10.63-72.03.97-13.81,13.02-12.81,13.72,1.09.84,16.64,3.18,36.38,9.69,50.15,4.51,9.54,9.23,13.07,17.41,12.7,8.54-.38,14.81-7.2,18.36-19.63,1.94-6.79,3.9-23.6,4.25-39.04.44-19.31,13.64-17.87,14.92-.88,1.04,9.46,3.75,36.37,8.54,60.16,7.93,39.37,44.23,40.01,43.21-19.35-.16-9.6-8.6-130.7-13.21-155.67-10.88-58.95-47.6-61.81-58.98-21.62-3.59,12.69-7.08,26.18-9.06,43.44-2.72,23.84-3.59,34.07-13.5,34.08-8.19.01-9.29-9.21-13.93-33.17-3.83-19.78-8.96-50.11-22.81-64.58-21.16-22.11-43.92,1.13-49.47,67.16-4.12,48.94-9.32,148.88,6.4,169.29ZM325.72,232.43c.25-27.99-1.61-111.63-13.82-120.39-4.31-3.09-9.85-3.65-13.47-.57-5.64,4.79-4.25,22.64-4.27,25.51-.02,4.93-4.44,5.16-6.93,4.74-4.61-.78-3.29-8.15-6.22-14.02s-11.1-18.92-27.81-18.92c-3.68-.07-7.74,1.17-11.67,3.17-9.93,5.06-16.81,14.85-20.28,24.9-9.03,26.18-19.43,93.01,4.52,122.81,23.87,29.69,55.7,10.87,59.44-5.84,2.12-9.47,3.83-22.66,3.94-25.16.15-3.33,3.32-7.03,6.65-6.86,3.09.15,4.71,4.21,5.02,9.36.61,10.07.27,24.92,6.46,34.23,4.11,6.18,10.73,5.71,13.85.13,4.34-7.77,4.4-13.69,4.59-33.08ZM399.73,105.5c-3.44-2.05-7.29-3.01-11.86-3.17-4.18-.14-8.38.51-12.24,2.14-15.91,6.7-17.27,21.98-20.5,18.73-1.95-1.95-2.89-5.14-3.7-8.14-.51-1.9-1-3.8-1.35-5.73-1.73-9.36-8.84-8.35-13.52-6.5-2.32.92-3.79,3.22-3.63,5.71.91,14.34,4.14,65.65,4.14,80.63,0,61,9.14,84.64,23.88,84.64,11.5,0,11.43-18.61,11.34-50.5.82-21.05-8.26-66.45-1.95-71.9,16.18-14,17.53,12.6,28.92,11.28s15.9-31.61,7.94-48.71c-1.62-3.49-4.17-6.51-7.47-8.48ZM441.56,109.79c-2.48-24.37-20.43-24.38-25.77-7.37-.14.44-.14.9-.01,1.34.72,2.55,3.32,11.95,4.78,19.98,2.64,14.51-4.78,44.67-10.66,49.29-3.06,2.4-1.26,13.14-1.26,24.12,0,12.28,1.36,43.33,3.78,57.14.93,5.27,2.47,19.54,18.09,19.52,5.72,0,10.15-4.65,12.14-10.02,11.95-32.24.29-140.52-1.09-154.02ZM587.3,139.31c.38-1.66-1.37-.38-3.03,0-6.17,1.42-18.18.55-26.36,2.19-3.25.65-4.63,5.15-1.92,7.06,8.49,5.97,27.59,13.8,27.71,11.42.43-8.23,2.2-14.5,3.6-20.67Z"/><path class="cls-1" d="M385.31,7.83c7.77.19,15.26,5.03,21.43,9.33,2.43,1.69,5.67,5.33,8.64,5.94,3.15.64,5.66-4.44,7.24-6.51,2.3-3.01,4.49-6.69,7.32-9.24,2.88-2.59,6.92-4.82,10.55-6.14,2.91-1.06,7.18-2.01,10.04-.21,3.59,2.25.66,7.72-.61,10.58-3.55,8.02-7.17,16-10.79,23.99-3.36,7.42-6.12,15.03-9.29,22.52-1.75,4.13-3.08,5.42-7.57,5.88-4.55.46-6.23-.14-8.96-3.91-2.28-3.14-4.27-6.25-6.97-9.08-2.76-2.9-5.69-5.64-8.54-8.46-3.75-3.71-7.47-7.45-11.17-11.21-2.94-3-6.21-5.86-8.11-9.67-3.27-6.57-1.58-13.81,6.78-13.81ZM438.63,12.04c-.15-3.74-5.07.2-6.13,1.14-2.5,2.21-4.68,4.93-6.8,7.5-2.13,2.59-4.04,5.44-6.35,7.87-2.23,2.34-3.71.66-6.12-.85-5.7-3.57-11.37-7.2-17.09-10.75-1.7-1.05-6.31-2.98-5.3,1.1.51,2.04,3.4,4.52,4.87,5.93,4.78,4.57,9.57,9.11,14.18,13.87,1.93,1.99,9.63,12.29,12.46,9.5,2.03-2,3.06-6.29,4.31-8.58.9-1.66,1.76-3.33,2.51-5.06,3.06-7.02,7-14.23,9.46-21.66Z"/><path class="cls-1" d="M468.72,238.55c-.95-1.86.83-3.93,2.82-3.33,6.34,1.92,13.08,2.7,19.65,1.63,6.55-1.07,12.47-3.53,14-10.67.99-4.64.47-8.5-1.3-12.27-2.47-5.28-6.77-9.51-11.96-12.16-7.95-4.06-17.7-6.01-22.89-8.71-.79-.41-1.37-1.22-1.3-2.11.16-2.24,2.94-4.93,7.71-6.03,2.76-.64,5.66-.3,8.26.82,5.49,2.36,12.56,5.97,18.71,9.76,8.46,5.21,14.68,13.74,15.93,23.6,1.32,10.44-4.42,18.17-9.92,21.99-6.66,4.62-15.66,6.95-23.71,6.36-6.29-.46-13.16-3.28-16.01-8.87Z"/><path class="cls-1" d="M242.02,183.91c-3.06,6.77-2.79,16.47-.73,23.47,3.28,11.1,13.01,13.95,22.9,8.77,6.34-3.33.72-12.93-5.61-9.6-1.27.66-2.58,1.34-4.03,1.37-.29,0-.64-.09-.92-.34-1.25-1.12-1.96-4-2.27-6.12-.37-2.53-.36-5.18-.2-7.73.08-1.23.21-2.44.3-2.89.12-.64.94-3.03.17-1.31,2.92-6.47-6.66-12.13-9.6-5.61h0Z"/><path class="cls-1" d="M619.94,179.78c-3.22,6.92-4.98,15.13-3.86,22.72,1.78,12,11.97,17.23,23.36,16.89,7.3-.22,7.33-11.59,0-11.37s-12.14-1.79-12.34-9.33c-.07-2.76.35-5.39,1.03-8.05.3-1.19.66-2.35,1.04-3.51.17-.53.38-1.05.57-1.57.22-.59-.54,1.17.02-.03,3.07-6.59-6.73-12.38-9.82-5.74h0Z"/></svg>