<?xml version="1.0" encoding="UTF-8"?><svg id="Layer_1" xmlns="http://www.w3.org/2000/svg" viewBox="0 0 985.3 1033.66"><defs><style>.cls-1{stroke-width:0px;}</style></defs><path class="cls-1" d="M.59,1031.57c62.92-13.28,117.66-38.15,146.21-99.24,28.07-60.05,20.51-128.49,58.11-186,33.22-50.81,99.87-64.63,124.26-119.16,27.17-60.77,14.77-127.28,31.23-163.32,1.52-3.33,6.42-2.75,7.17.82,8.18,38.59,18.58,122.05,35.11,123.74,16.29,1.66,26.48-124.62,40.46-124.02,11.11.48-3.78,143.38,34.68,163.76,6.21,3.29,13.99,1.2,17.64-4.8,15.68-25.83,11.48-115.65,9.83-172.07-3.1-105.81-27.23-180.57-50.67-144.94-26.29,39.96-35.59,139.48-49.52,141.96-11.22,2-9.83-18.97-21.7-80.26-5.34-27.57-8.63-61.02-20.56-70.95-24.6-20.49-48.23,58.55-50.31,102.72-6.68,85.22,4.63,177.65-65.21,243.81-57.58,56.84-95.2,86.57-110.54,169.49-15.4,83.19-36.36,160.75-134.71,178.36l-2.07-7.93c100.72-35.45,107.69-90.67,128.71-183.32,11.76-51.85,25.95-79.35,64.05-115.06,19.98-18.73,44.81-37.32,64.14-60.25,13.62-16.16,23.15-35.36,28.18-55.89,20.55-83.96-4.8-200.98,44.94-278.58,16.45-25.66,35.21-13.87,44.34.54,17.26,27.23,28.07,134.42,31.12,134.43,3.34.01,23.97-156.84,67.21-144.2,3.78,1.11,7.04,3.51,9.49,6.6,21.91,27.54,30.01,79.63,33.25,127.93,3.25,48.4,4,83.25,3.94,97.38-.22,48.23-1.99,103.71-12.72,119.26-4.23,6.13-9.25,12.35-18.88,13.2-20.18,1.77-33.99-14.91-41.65-46.97-7.24-30.28-5.53-100.16-6.14-97.24-7.16,34.52-12.77,100.93-37.52,99.87-35.33-1.51-38.21-104.42-38.95-99.8-6.95,43.13-6.31,97.15-28.36,136.57-35.53,63.52-113.73,76.97-142.39,152.84-21.02,55.64-13.07,119.25-49.17,169.45-32.49,45.18-88.52,70.57-142.72,73.36l-.27-2.09h0Z"/><path class="cls-1" d="M584.48,627.45c34.78-1.88,6.74-159.16,18.5-195.18,1.46-4.48,10.35-5.7,11.97-1.94,12.44,28.76,56.27,160.39,83.78,177.25,41.67,25.54,36.83-115.83,35.34-200.23-.81-45.58,4.47-91.68,32.14-140.5,13.94-24.59,22.88-38.21,57.63-59.3,20.01-12.14,70.39-48.19,83.08-90,13.96-46.02,33.57-68.65,47.53-81.86,22.24-21.04,28.57-9.26,30.85-9.26,0,0-10.78-.59-36.13,26.23-19.26,20.38-22.81,40.88-35.52,73.18-18.61,47.26-57.55,71.81-102.04,100.58-42.26,27.33-64.74,99.19-67.65,135.81-5.74,72.28,8.98,115.01,4.13,185.1-4.63,33.46-4.39,96.04-47.69,83.82-32.16-8.91-84.34-158.37-84.36-158.32-8.86,23.89,10.61,146.79-16.71,165.72-12.05,8.36-27.72,8.36-38.16-3.38-31-34.85-26.41-132.82-27.75-161.89-1.43-56.66-11.87-149.05,22.05-183.55,53.78-54.7,118.48,133.71,118.48,133.65-6.12-118.66,47.91-187.07,71.15-210.88,34.2-35.04,51.9-27.03,84.41-67.75,26.63-33.36,30.28-82.56,78.12-125.57,28.15-25.31,61.87-18.53,59.71-17.88-85.99,25.83-87.58,62.68-102.67,93.61-16.28,33.38-30.89,69.11-69.04,90.37-62.74,34.97-93.62,102.64-104.76,153.12s.57,121.13-8.97,119.84c-14.85-1.43-45.75-113.71-75.33-144.41-37.67-39.08-49.94-7.76-59.25,29.84-5.75,23.22-7.57,47.22-5.98,71.08,4.23,63.24,1.47,214.94,43.13,212.69h0Z"/></svg>